# xmcd
#
# Track frame offsets: 
#        150
#        33396
#        69036
#        99834
#        157712
#
# Disc length: 2582 seconds
#
# Revision: 1
# Processed by: cddbd v1.5.2PL0 Copyright (c) Steve Scherf et al.
# Submitted via: ExactAudioCopy v0.99pb5
#
DISCID=270a1405
DTITLE=Chet Baker, Harold Danko, Hein van de Geyn, John Engels - One N
DTITLE=ight in Tokyo (87.6.14) (Immortal) [CD2)
DYEAR=1987
DGENRE=Jazz
TTITLE0=Four <M. Davis>
TTITLE1=Almost Blue <E. Costello>
TTITLE2=Beatrice <S. Rivers>
TTITLE3=My Funny Valentine <L. Hart, R. Rodgers>
TTITLE4=Sevene Steps to Heaven <M. Davis, V. Feldman>
EXTD=YEAR: 1987
EXTT0=
EXTT1=
EXTT2=
EXTT3=
EXTT4=
PLAYORDER=
